<?xml version="1.0" encoding="utf-8"?>
<svg version="1.1" xmlns:xlink="http://www.w3.org/1999/xlink" width="118px" height="30px" xmlns="http://www.w3.org/2000/svg">
  <g transform="matrix(1 0 0 1 -256 -142 )">
    <path d="M 8 27  L 118 27  L 118 30  L 0 30  L 0 0  L 8 0  L 8 27  Z M 110.1064453125 2.67578125  C 110.4521484375 2.79296875  110.625 2.94270833333333  110.625 3.125  L 110.625 11.62109375  C 110.625 11.89453125  110.25048828125 12.0865885416667  109.50146484375 12.197265625  C 108.75244140625 12.3079427083333  108.070638020833 12.2591145833333  107.4560546875 12.05078125  L 100.484375 9.6875  L 64.0126953125 22.05078125  C 63.6285807291667 22.1809895833333  63.1868489583333 22.24609375  62.6875 22.24609375  C 62.1881510416667 22.24609375  61.7464192708333 22.1809895833333  61.3623046875 22.05078125  L 47.9375 17.5  L 23.96875 25.625  L 12.90625 21.875  L 46.6123046875 10.44921875  C 46.9964192708333 10.3190104166667  47.4381510416667 10.25390625  47.9375 10.25390625  C 48.4368489583333 10.25390625  48.8785807291667 10.3190104166667  49.2626953125 10.44921875  L 62.6875 15  L 89.421875 5.9375  L 82.4501953125 3.57421875  C 81.8356119791667 3.36588541666666  81.6915690104167 3.134765625  82.01806640625 2.880859375  C 82.3445638020833 2.626953125  82.9111328125 2.5  83.7177734375 3  L 108.78125 3  C 109.319010416667 2.5  109.7607421875 2.55859375  110.1064453125 2.67578125  Z " fill-rule="nonzero" fill="#333333" stroke="none" transform="matrix(1 0 0 1 256 142 )" />
  </g>
</svg>